<?xml version="1.0" encoding="UTF-8" standalone="no"?>
<!-- Generator: Adobe Illustrator 16.0.0, SVG Export Plug-In . SVG Version: 6.00 Build 0)  -->

<svg
   xmlns:dc="http://purl.org/dc/elements/1.1/"
   xmlns:cc="http://creativecommons.org/ns#"
   xmlns:rdf="http://www.w3.org/1999/02/22-rdf-syntax-ns#"
   xmlns:svg="http://www.w3.org/2000/svg"
   xmlns="http://www.w3.org/2000/svg"
   xmlns:sodipodi="http://sodipodi.sourceforge.net/DTD/sodipodi-0.dtd"
   xmlns:inkscape="http://www.inkscape.org/namespaces/inkscape"
   version="1.1"
   id="Capa_1"
   x="0px"
   y="0px"
   width="444.059px"
   height="444.059px"
   viewBox="0 0 444.059 444.059"
   style="enable-background:new 0 0 444.059 444.059;"
   xml:space="preserve"
   sodipodi:docname="student.svg"
   inkscape:version="0.92.4 (5da689c313, 2019-01-14)"><metadata
   id="metadata47"><rdf:RDF><cc:Work
       rdf:about=""><dc:format>image/svg+xml</dc:format><dc:type
         rdf:resource="http://purl.org/dc/dcmitype/StillImage" /></cc:Work></rdf:RDF></metadata><defs
   id="defs45" /><sodipodi:namedview
   pagecolor="#ffffff"
   bordercolor="#666666"
   borderopacity="1"
   objecttolerance="10"
   gridtolerance="10"
   guidetolerance="10"
   inkscape:pageopacity="0"
   inkscape:pageshadow="2"
   inkscape:window-width="741"
   inkscape:window-height="480"
   id="namedview43"
   showgrid="false"
   inkscape:zoom="0.53146092"
   inkscape:cx="-12.230438"
   inkscape:cy="222.0295"
   inkscape:window-x="0"
   inkscape:window-y="0"
   inkscape:window-maximized="0"
   inkscape:current-layer="Capa_1" />
<g
   id="g10"
   style="fill:#825d2d;fill-opacity:1">
	<g
   id="g8"
   style="fill:#825d2d;fill-opacity:1">
		<g
   id="g6"
   style="fill:#825d2d;fill-opacity:1">
			<path
   d="M357.76,312.234c-3.28-7.848-11.178-12.873-18.713-15.963l-50.938-23.455l-24.473-20.639l-39.323,39.111h-0.03     l16.971,113.445c0.061,0.389-0.04,0.787-0.271,1.105l-17.744,24.283c-0.282,0.391-0.732,0.617-1.212,0.617     c-0.48,0-0.93-0.229-1.212-0.617l-17.742-24.283c-0.234-0.318-0.332-0.719-0.273-1.105l16.969-113.447h-0.026l-39.321-39.109     l-24.473,20.639l-50.941,23.455c-7.537,3.09-14.943,7.783-18.711,15.963c0,0-55.371,131.824-25.338,131.824h322.145     C413.132,444.061,357.76,312.234,357.76,312.234z"
   id="path2"
   style="fill:#825d2d;fill-opacity:1" />
			<path
   d="M361.298,131.489c0.767-0.083,1.457-0.449,1.932-1.042c0.481-0.592,0.698-1.355,0.613-2.114     c-0.57-4.869-1.143-9.728-1.708-14.597l-1.187-10.189c-0.181-1.521-1.542-2.627-3.074-2.49l-2.203,0.003l0.042-34.202     l1.153-0.419l3.845-1.388c3.256-1.178,5.424-4.265,5.424-7.724c0-3.46-2.168-6.548-5.424-7.727L224.819,0.49     c-1.807-0.653-3.783-0.653-5.586,0L83.339,49.6c-3.254,1.179-5.422,4.267-5.422,7.727c0,3.459,2.168,6.546,5.422,7.724     l50.236,18.155c-3.546,11.195-5.16,24.013-5.015,38.284c0.884,81.402,48.138,129.944,91.862,129.944     c43.213,0,90.979-48.542,91.859-129.944c0.146-13.832-1.379-26.291-4.697-37.238l36.528-13.2l0.077,30.021l-2.207-0.001     c-1.533-0.134-2.895,0.968-3.07,2.501l-2.857,24.788c-0.086,0.755,0.137,1.51,0.615,2.104c0.479,0.591,1.176,0.97,1.932,1.033      M220.428,231.666c-38.148,0-64.471-44.688-69.781-89.361c-4.91-41.314,54.838-43.237,58.308-17.63     c1.069,7.872-7.97,16.305-6.945,19.556c5.056,16.049,88.772-52.383,88.2-1.946C289.807,177.896,256.775,231.666,220.428,231.666z     "
   id="path4"
   style="fill:#825d2d;fill-opacity:1" />
		</g>
	</g>
</g>
<g
   id="g12">
</g>
<g
   id="g14">
</g>
<g
   id="g16">
</g>
<g
   id="g18">
</g>
<g
   id="g20">
</g>
<g
   id="g22">
</g>
<g
   id="g24">
</g>
<g
   id="g26">
</g>
<g
   id="g28">
</g>
<g
   id="g30">
</g>
<g
   id="g32">
</g>
<g
   id="g34">
</g>
<g
   id="g36">
</g>
<g
   id="g38">
</g>
<g
   id="g40">
</g>
</svg>