<?xml version="1.0" encoding="UTF-8" standalone="no"?>
<!-- Generator: Adobe Illustrator 20.1.0, SVG Export Plug-In . SVG Version: 6.00 Build 0)  -->

<svg
   xmlns:dc="http://purl.org/dc/elements/1.1/"
   xmlns:cc="http://creativecommons.org/ns#"
   xmlns:rdf="http://www.w3.org/1999/02/22-rdf-syntax-ns#"
   xmlns:svg="http://www.w3.org/2000/svg"
   xmlns="http://www.w3.org/2000/svg"
   xmlns:sodipodi="http://sodipodi.sourceforge.net/DTD/sodipodi-0.dtd"
   xmlns:inkscape="http://www.inkscape.org/namespaces/inkscape"
   version="1.1"
   id="Layer_1"
   x="0px"
   y="0px"
   viewBox="0 0 704.3 188"
   style="enable-background:new 0 0 704.3 188;"
   xml:space="preserve"
   sodipodi:docname="mylogo.svg"
   inkscape:version="0.92.4 (5da689c313, 2019-01-14)"><metadata
   id="metadata411"><rdf:RDF><cc:Work
       rdf:about=""><dc:format>image/svg+xml</dc:format><dc:type
         rdf:resource="http://purl.org/dc/dcmitype/StillImage" /><dc:title></dc:title></cc:Work></rdf:RDF></metadata><defs
   id="defs409"><inkscape:perspective
     sodipodi:type="inkscape:persp3d"
     inkscape:vp_x="-55.045934 : 118.62502 : 1"
     inkscape:vp_y="0 : 1646.9949 : 0"
     inkscape:vp_z="715.19505 : 118.62502 : 1"
     inkscape:persp3d-origin="330.07456 : 67.019171 : 1"
     id="perspective494" /></defs><sodipodi:namedview
   pagecolor="#ffffff"
   bordercolor="#666666"
   borderopacity="1"
   objecttolerance="10"
   gridtolerance="10"
   guidetolerance="10"
   inkscape:pageopacity="0"
   inkscape:pageshadow="2"
   inkscape:window-width="1280"
   inkscape:window-height="962"
   id="namedview407"
   showgrid="false"
   inkscape:pagecheckerboard="true"
   inkscape:zoom="1.5973307"
   inkscape:cx="352.14999"
   inkscape:cy="94"
   inkscape:window-x="-8"
   inkscape:window-y="-8"
   inkscape:window-maximized="1"
   inkscape:current-layer="Layer_1" />
<style
   type="text/css"
   id="style350">
	.st0{fill:#FFFFFF;}
</style>
<g
   id="g404"
   transform="translate(-0.62604444,24.293867)">
	<path
   class="st0"
   d="m 63.3,132.8 h 25.2 c 0.1,-0.1 0.1,-0.3 0.2,-0.4 0.5,-1.1 1,-2.1 1.5,-3.2 0.7,-1.5 1.4,-3 2.2,-4.5 0.6,-1.2 1.2,-2.4 1.8,-3.6 0.6,-1.2 1.2,-2.4 1.8,-3.6 0.5,-1 0.9,-2.1 1.3,-3.1 0.5,-1.2 0.9,-2.4 1.3,-3.6 0.5,-1.5 0.8,-3.1 1.2,-4.6 0.2,-1.1 0.5,-2.2 0.6,-3.2 0.1,-1.2 0,-2.4 -0.2,-3.5 -0.1,-0.7 -0.3,-1.3 -0.7,-1.9 -0.3,-0.5 -0.8,-1 -1.2,-1.5 -0.6,-0.9 -1.3,-1.7 -1.9,-2.6 -1,-1.5 -2,-3 -3,-4.6 -0.6,-1 -1.2,-2 -1.7,-3 -0.6,-1.2 -1.3,-2.5 -1.8,-3.7 -0.5,-1 -0.9,-2 -1.3,-3.1 -0.5,-1.5 -1,-3 -1.5,-4.6 -0.3,-1.1 -0.6,-2.1 -0.8,-3.2 -0.2,-1.1 -0.4,-2.2 -0.5,-3.4 -0.1,-2.2 -0.3,-4.4 0.1,-6.6 0.2,-0.9 0.3,-1.8 0.5,-2.7 0.3,-1.3 0.7,-2.5 1.1,-3.7 0.1,-0.4 0.3,-0.8 0.5,-1.2 0.5,-1 1.1,-2 1.7,-2.9 0.3,-0.5 0.7,-1 1,-1.4 l 10.2,15.2 c 2.4,-2.4 5.5,-4.2 8.9,-5 -3.1,1.8 -5.5,4.6 -6.9,7.8 -0.9,2 -1.4,4.3 -1.4,6.7 0,9.3 7.5,16.8 16.8,16.8 4.7,0 9,-2 12.1,-5.1 3,-3 4.8,-7.2 4.8,-11.7 0,-9.3 -7.5,-16.8 -16.8,-16.8 -1,0 -2,0.1 -3,0.3 L 100.8,35.7 c 0.1,-0.1 0.3,-0.2 0.4,-0.3 1.2,-0.8 2.4,-1.5 3.7,-2.1 1.2,-0.6 2.4,-1.1 3.6,-1.5 1.4,-0.5 2.8,-0.8 4.2,-1.1 1.3,-0.3 2.7,-0.5 4,-0.7 1.2,-0.1 2.4,-0.2 3.6,-0.2 2.5,0 5,0.1 7.5,0.1 0.1,0 0.2,0.1 0.3,0.1 -1.5,0.8 -2.9,1.5 -4.3,2.3 0,0 0,0.1 0,0.1 0.4,-0.1 0.8,-0.2 1.2,-0.2 2.1,-0.2 4.3,-0.4 6.4,-0.6 0.9,-0.1 1.7,-0.1 2.6,-0.2 0.9,-0.1 1.9,-0.2 2.8,-0.3 0,0 0,0.1 0,0.1 -1.9,1.1 -3.9,2.2 -5.8,3.4 0.1,0.1 0.2,0.1 0.3,0.1 1.4,0.1 2.8,0.3 4.2,0.4 1.8,0.2 3.7,0.3 5.5,0.5 1.5,0.1 2.9,0.3 4.4,0.4 1.4,0.1 2.8,0.3 4.2,0.7 1.5,0.5 2.9,1.1 4.2,2.2 0.8,0.7 1.5,1.4 1.8,2.4 0.3,1.2 0.6,2.4 1.3,3.5 0.7,1.1 1.4,2.1 2.9,2.1 -2.5,3.6 -5.7,5.2 -10.1,3.8 0,0.2 0.1,0.3 0.1,0.4 0.3,0.9 0.6,1.8 0.9,2.7 0.2,0.5 0.3,1 0.5,1.6 0.5,1.6 1.1,3.2 1.6,4.8 0.1,0.2 0.1,0.5 0.2,0.7 0.2,0.7 0.5,1.5 0.8,2.2 0.2,0.7 0.5,1.3 0.7,2 0.2,0.6 0.5,1.3 0.5,1.9 0,0.6 -0.4,1.2 -0.6,1.8 -0.1,0.3 -0.3,0.6 -0.4,0.9 -0.2,0.9 0,1.8 0.4,2.6 0.5,0.9 1.1,1.7 1.8,2.4 1.1,1.2 2.3,2.3 3.4,3.5 0.9,0.9 1.8,1.9 2.6,2.9 0.7,0.8 1,1.8 0.6,2.8 -0.4,1.2 -1.3,1.8 -2.4,2.3 -0.5,0.2 -1,0.2 -1.5,0.4 -1,0.4 -1.2,0.9 -0.8,1.8 0.3,0.7 0.5,1.3 0.6,2 0.2,0.8 0,1.7 -0.3,2.5 -0.3,0.8 -0.9,1.5 -1.8,1.7 -0.6,0.2 -1.3,0.3 -2,0.4 -0.4,0.1 -0.5,0.2 -0.3,0.5 0.4,0.6 0.8,1.1 1.2,1.7 0.5,0.7 0.9,1.4 1,2.2 0.1,0.7 -0.1,1.4 -0.3,2.2 -0.4,1.3 -0.1,2.5 0.6,3.7 0.3,0.5 0.8,1 1.1,1.5 0.6,1.1 0.7,2.3 0.4,3.6 -0.1,0.4 -0.3,0.9 -0.6,1.2 -0.8,1 -1.9,1.5 -3.1,1.7 -1.4,0.3 -2.8,0.4 -4.2,0.5 -0.6,0 -1.2,-0.2 -1.8,-0.1 -1,0 -2,0.1 -3,0.2 -1,0.1 -2,0.3 -3,0.5 -1.1,0.2 -2.2,0.7 -3.2,1.4 -1.5,0.9 -2.5,2.2 -3,3.9 -0.2,0.6 -0.4,1.3 -0.5,1.9 -0.2,0.8 -0.5,1.6 -0.6,2.4 -0.3,1.8 -0.4,3.7 -0.3,5.5 0.1,1.3 0.3,2.5 0.7,3.7 h 8.2 36 V 2.8 H 63.3 Z m 55.2,-48.6 c -4.1,0 -7.6,-2.5 -9.1,-6 1.7,2.7 4.7,4.4 8.2,4.4 5.4,0 9.8,-4.4 9.8,-9.8 0,-2 -0.6,-3.9 -1.7,-5.4 1.7,1.8 2.8,4.2 2.8,6.9 -0.1,5.5 -4.5,9.9 -10,9.9 z"
   id="path352"
   inkscape:connector-curvature="0"
   style="fill:#ffffff" />
	<polygon
   class="st0"
   points="231.1,53.1 231.1,33.5 300,33.5 300,2.8 195.4,2.8 195.4,132.8 300.9,132.8 300.9,102.2 231.1,102.2 231.1,81.6 293.5,81.6 293.5,53.1 "
   id="polygon354"
   style="fill:#ffffff" />
	<path
   class="st0"
   d="m 398.9,93.2 c -2,1.9 -4.2,3.6 -6.5,5 -2.3,1.4 -4.8,2.5 -7.6,3.3 -2.8,0.7 -5.9,1.1 -9.2,1.1 -4.6,0 -8.8,-0.9 -12.5,-2.7 -3.8,-1.8 -7,-4.2 -9.8,-7.3 -2.7,-3.1 -4.9,-6.8 -6.4,-11.1 -1.5,-4.3 -2.3,-8.8 -2.3,-13.7 0,-4.8 0.8,-9.3 2.3,-13.6 1.5,-4.2 3.7,-7.9 6.4,-11.1 2.7,-3.2 6,-5.6 9.8,-7.4 3.8,-1.8 8,-2.7 12.5,-2.7 6.3,0 11.7,1.3 16.3,4 4.5,2.7 8.6,6.3 12.4,11.1 l 26.4,-20.4 c -2.9,-4 -6.1,-7.6 -9.7,-11.1 -3.6,-3.4 -7.6,-6.3 -12.1,-8.7 -4.5,-2.4 -9.4,-4.3 -14.8,-5.7 -5.4,-1.4 -11.4,-2 -18.1,-2 -9.9,0 -19,1.7 -27.4,5.2 -8.4,3.5 -15.6,8.3 -21.6,14.4 -6.1,6.1 -10.8,13.3 -14.3,21.5 -3.5,8.2 -5.2,17.1 -5.2,26.5 0,9.8 1.8,18.8 5.3,27.1 3.5,8.3 8.3,15.5 14.3,21.5 6,6 13.1,10.7 21.3,14 8.2,3.3 16.9,5 26.2,5 7.2,0 13.7,-0.7 19.4,-2.2 5.8,-1.5 11,-3.5 15.6,-6.1 4.6,-2.6 8.8,-5.7 12.4,-9.3 3.7,-3.6 7,-7.5 10.1,-11.7 L 405,86.8 c -2,2.3 -4.1,4.5 -6.1,6.4 z"
   id="path356"
   inkscape:connector-curvature="0"
   style="fill:#ffffff" />
	<polygon
   class="st0"
   points="440,2.8 440,132.8 476.1,132.8 476.1,83.4 522.3,83.4 522.3,132.8 558.4,132.8 558.4,2.8 522.3,2.8 522.3,51.5 476.1,51.5 476.1,2.8 "
   id="polygon358"
   style="fill:#ffffff" />
	<polygon
   class="st0"
   points="660,2.8 609.7,76 609.7,2.8 574,2.8 574,132.8 607.6,132.8 658,59.6 658,132.8 693.6,132.8 693.6,2.8 "
   id="polygon360"
   style="fill:#ffffff" />
	<g
   id="g394">
		
		
		
		
		
		
		
		
		
		
		
		
		
		
		
		
	</g>
	<g
   id="g402">
		<polygon
   class="st0"
   points="19.9,132.6 19.9,118.8 56.2,118.8 56.2,108.7 19.9,108.7 19.9,94.9 10.6,94.9 10.6,132.6 "
   id="polygon396"
   style="fill:#ffffff" />
		<polygon
   class="st0"
   points="10.6,77.1 10.6,87.2 56.2,87.2 56.2,77.1 37.9,77.1 37.9,58.6 56.2,58.6 56.2,48.6 10.6,48.6 10.6,58.6 28.7,58.6 28.7,77.1 "
   id="polygon398"
   style="fill:#ffffff" />
		<polygon
   class="st0"
   points="28.8,6.2 28.8,27.7 19.6,27.7 19.6,3.3 10.6,3.3 10.6,37.7 56.2,37.7 56.2,3 47.3,3 47.3,27.7 37.7,27.7 37.7,6.2 "
   id="polygon400"
   style="fill:#ffffff" />
	</g>
</g>
</svg>