<?xml version="1.0" encoding="UTF-8" standalone="no"?>
<!-- Generator: Adobe Illustrator 19.0.0, SVG Export Plug-In . SVG Version: 6.00 Build 0)  -->

<svg
   xmlns:dc="http://purl.org/dc/elements/1.1/"
   xmlns:cc="http://creativecommons.org/ns#"
   xmlns:rdf="http://www.w3.org/1999/02/22-rdf-syntax-ns#"
   xmlns:svg="http://www.w3.org/2000/svg"
   xmlns="http://www.w3.org/2000/svg"
   xmlns:sodipodi="http://sodipodi.sourceforge.net/DTD/sodipodi-0.dtd"
   xmlns:inkscape="http://www.inkscape.org/namespaces/inkscape"
   version="1.1"
   id="Capa_1"
   x="0px"
   y="0px"
   viewBox="0 0 512 512"
   style="enable-background:new 0 0 512 512;"
   xml:space="preserve"
   sodipodi:docname="scissors-light.svg"
   inkscape:version="0.92.4 (5da689c313, 2019-01-14)"><metadata
   id="metadata43"><rdf:RDF><cc:Work
       rdf:about=""><dc:format>image/svg+xml</dc:format><dc:type
         rdf:resource="http://purl.org/dc/dcmitype/StillImage" /></cc:Work></rdf:RDF></metadata><defs
   id="defs41" /><sodipodi:namedview
   pagecolor="#ffffff"
   bordercolor="#666666"
   borderopacity="1"
   objecttolerance="10"
   gridtolerance="10"
   guidetolerance="10"
   inkscape:pageopacity="0"
   inkscape:pageshadow="2"
   inkscape:window-width="1280"
   inkscape:window-height="1002"
   id="namedview39"
   showgrid="false"
   inkscape:zoom="0.4609375"
   inkscape:cx="-393.76271"
   inkscape:cy="256"
   inkscape:window-x="1272"
   inkscape:window-y="-8"
   inkscape:window-maximized="1"
   inkscape:current-layer="Capa_1" />
<g
   id="g6"
   style="fill:#caac86;fill-opacity:1">
	<g
   id="g4"
   style="fill:#caac86;fill-opacity:1">
		<path
   d="M512,107.275c-23.658-33.787-70.696-42.691-104.489-19.033L233.753,209.907l-63.183-44.246    c23.526-40.618,12.46-93.179-26.71-120.603c-41.364-28.954-98.355-18.906-127.321,22.45    c-28.953,41.358-18.913,98.361,22.452,127.327c28.384,19.874,64.137,21.364,93.129,6.982l77.388,54.185l-77.381,54.179    c-28.992-14.375-64.743-12.885-93.129,6.982c-41.363,28.966-51.404,85.963-22.452,127.32    c28.966,41.363,85.963,51.411,127.32,22.457c39.165-27.424,50.229-79.985,26.71-120.603l63.183-44.246l173.751,121.658    c33.793,23.665,80.831,14.755,104.489-19.033l-212.41-148.715L512,107.275z M91.627,167.539    c-26.173,0-47.392-21.219-47.392-47.392s21.22-47.392,47.392-47.392c26.179,0,47.392,21.219,47.392,47.392    S117.806,167.539,91.627,167.539z M91.627,439.253c-26.173,0-47.392-21.219-47.392-47.392c0-26.173,21.219-47.392,47.392-47.392    c26.179,0,47.392,21.219,47.392,47.392C139.019,418.033,117.806,439.253,91.627,439.253z"
   id="path2"
   style="fill:#caac86;fill-opacity:1" />
	</g>
</g>
<g
   id="g8">
</g>
<g
   id="g10">
</g>
<g
   id="g12">
</g>
<g
   id="g14">
</g>
<g
   id="g16">
</g>
<g
   id="g18">
</g>
<g
   id="g20">
</g>
<g
   id="g22">
</g>
<g
   id="g24">
</g>
<g
   id="g26">
</g>
<g
   id="g28">
</g>
<g
   id="g30">
</g>
<g
   id="g32">
</g>
<g
   id="g34">
</g>
<g
   id="g36">
</g>
</svg>